<?xml version="1.0" encoding="UTF-8"?><svg id="Capa_1" xmlns="http://www.w3.org/2000/svg" viewBox="0 0 1652.7 654.92"><defs><style>.cls-1{fill:#fff;}.cls-2{fill:#00a0ff;}</style></defs><path class="cls-1" d="m610.23,61.57c-5.89,2.71-9.99,7.5-11.96,13.02-3.91,10.95-11.06,20.45-21.13,26.27l-4.13,2.39c-56.34,32.53-128.39,13.21-160.92-43.13l-5.8-10.05c-4.47-7.74-4.62-14.39-2.23-20.33,2.46-6.11,2.12-13.27-1.59-19.37-5.83-9.6-18.5-13.18-28.48-8.03-8.01,4.13-12.29,12.44-11.73,20.76.42,6.3-2.38,12.39-7.01,16.68L95.45,279.91c-5,4.62-11.95,6.61-18.59,5.1-6.53-1.49-13.68-.36-19.75,3.87-9.71,6.78-13.27,19.9-8.31,30.65,3,6.51,8.35,11.03,14.49,13.14,12.07,4.15,22.55,11.94,28.94,22.99l15.09,26.14c32.53,56.34,13.22,128.38-43.12,160.91l-4.13,2.39c-10.07,5.82-21.87,7.26-33.32,5.17-5.77-1.06-11.97.1-17.26,3.85-9.17,6.49-12.17,19.16-6.95,29.1,6.05,11.51,20.38,15.58,31.53,9.14,4.67-2.7,8.02-6.8,9.82-11.46,4.46-11.54,12.16-21.53,22.87-27.72l2.6-1.5c56.34-32.53,128.38-13.22,160.91,43.12l7.07,12.24c3.2,5.55,3.36,12.2.97,18.15-2.46,6.11-2.12,13.27,1.59,19.37,5.83,9.6,18.5,13.18,28.48,8.03,8.01-4.13,12.29-12.44,11.73-20.76-.42-6.3,2.38-12.39,7.01-16.68l259.79-240.12c5-4.62,11.95-6.61,18.59-5.1,6.53,1.49,13.68.36,19.74-3.87,9.71-6.77,13.27-19.9,8.32-30.65-3.83-8.31-11.48-13.37-19.73-14.33-7.29-.85-13.87-4.77-17.54-11.12l-21.26-36.82c-32.53-56.34-13.22-128.38,43.12-160.91l2.6-1.5c10.71-6.18,23.22-7.85,35.44-5.95,4.94.77,10.17-.08,14.84-2.78,11.15-6.44,14.79-20.89,7.85-31.88-6-9.5-18.47-13.23-28.67-8.53Zm-347.95,550.3l-.19-.03c-7.03-1.21-13.15-5.49-16.72-11.66l-6.11-10.57c-32.53-56.34-13.22-128.38,43.12-160.91l79.85-46.1c11.82-6.82,25.99-9.06,39.04-5.06,7.81,2.39,16.56,1.58,24.14-3.01,13.22-8.01,18.12-25.37,11.02-39.1-7.86-15.2-26.71-20.61-41.36-12.15-7.13,4.12-11.91,10.74-13.86,18.11-3.6,13.56-12.09,25.29-24.24,32.3l-79.76,46.05c-56.34,32.53-128.38,13.22-160.91-43.12l-16.01-27.74c-6-10.39-7.38-22.62-4.9-34.36.59-2.79.73-5.69.41-8.52-.77-6.84,1.46-13.68,6.52-18.36L360.78,48.76c5.21-4.81,12.35-6.93,19.34-5.72l.19.03c7.03,1.21,13.15,5.49,16.72,11.66l6.11,10.57c32.53,56.34,13.22,128.38-43.12,160.91l-79.85,46.1c-11.82,6.82-25.99,9.06-39.04,5.06-7.81-2.39-16.56-1.58-24.14,3.01-13.22,8.01-18.12,25.36-11.02,39.09,7.86,15.2,26.71,20.61,41.36,12.15,7.13-4.12,11.91-10.74,13.86-18.11,3.6-13.55,12.09-25.29,24.24-32.3l79.76-46.05c56.34-32.53,128.38-13.22,160.91,43.12l21.73,37.64c3.45,5.97,3.47,13.18.62,19.46-1.9,4.19-2.62,8.89-2.01,13.56.91,6.86-1.42,13.74-6.5,18.44l-258.33,238.77c-5.21,4.81-12.35,6.93-19.34,5.72Z"/><path class="cls-2" d="m1582.27,635.85h-41.47v-3c0-50.11.05-100.23-.05-150.34-.02-8.39,3.44-14.78,9.81-19.87,3.95-3.16,8.48-5.29,13.18-7.1,8.08-3.1,16.51-4.66,25.07-5.66.71-.08,1.43-.15,2.13-.28.51-.1,1-.3,1.48-.73h-121.87v-36.76h181.62c.55,1.82.75,32.78.2,36.77-.89.05-1.84.13-2.79.14-11.82.01-23.65.04-35.47,0-5.07-.02-9.97.62-14.72,2.52-10.91,4.38-16.29,12.62-17.04,24.09-.16,2.49-.08,5-.08,7.5,0,48.86,0,97.73,0,146.59v6.12Z"/><path class="cls-2" d="m1408.35,412.07h41.16c.07.07.14.12.2.19.06.06.15.13.16.2.06.35.15.7.15,1.05,0,73.68,0,147.37-.01,221.05,0,.34-.09.69-.13.99-2.02.51-38.03.66-41.3.19-.6-2.28-.84-216.86-.22-223.68Z"/><path class="cls-1" d="m686.59,635.84c-28.24-56.93-56.55-114-84.86-171.08-.15.03-.3.05-.46.08v170.65c-2.39.63-34.16.86-41.53.38-.06-.06-.13-.12-.19-.19-.06-.06-.17-.13-.17-.2-.04-73.78-.08-147.56-.11-221.34,0-.62.08-1.23.13-2.03.73-.07,1.42-.19,2.11-.19,17.02-.01,34.04.01,51.06-.05,1.69,0,2.49.61,3.21,2.09,25.75,52.92,51.56,105.82,77.34,158.72,1.53,3.13,2.97,6.3,4.46,9.45.26.55.58,1.08,1.14,1.58.33-4.67.29-9.32.3-13.97,0-4.82,0-9.65,0-14.47v-143.2h41.5c.54,2.04.63,220.9.08,223.76h-54.03Z"/><path class="cls-1" d="m1374.8,477.56h-41.33c-.15-.69-.36-1.28-.41-1.88-.98-11.9-7.31-20.46-17.04-26.78-6.73-4.37-14.23-6.67-22.19-7.46-8.16-.81-16.27-.59-24.27,1.45-6.93,1.77-13.38,4.55-18.92,9.15-4.14,3.45-7.39,7.58-8.64,12.92-1.77,7.58-.11,14.35,5.28,20.08,3.37,3.59,7.52,6.13,12.12,7.72,4.81,1.66,9.72,3.06,14.66,4.27,15.72,3.85,31.57,7.22,47.19,11.44,13.08,3.54,25.02,9.69,35.27,18.72,11.77,10.37,18.52,23.38,20.54,38.91.98,7.51.98,14.93-.85,22.33-2.85,11.56-9.02,21.1-17.76,29.07-9.55,8.71-20.75,14.55-32.96,18.57-12.33,4.06-25.01,6.18-38.01,6.12-17.14-.09-33.66-3.2-49.08-10.94-19.47-9.78-33.41-24.59-40.71-45.27-2.48-7.02-3.87-15.41-3.68-21.76,1.89-.58,38.07-.71,41.37-.12.13,1.43.19,2.93.42,4.4,2.16,13.51,9.54,23.47,21.18,30.38,7.5,4.45,15.73,6.7,24.4,7.59,7.18.74,14.3.66,21.41-.57,7.51-1.3,14.49-3.94,20.76-8.31,3.71-2.59,6.87-5.74,9.11-9.7,5.05-8.92,5.04-21.86-5.64-30.74-4.9-4.07-10.51-6.85-16.58-8.57-6.53-1.85-13.18-3.33-19.79-4.9-11.4-2.7-22.84-5.24-34.22-8.05-8.72-2.15-17.09-5.28-24.97-9.64-12.36-6.84-22.07-16.22-27.21-29.58-5.4-14.06-6.65-28.46-2.01-43.02,4.06-12.75,12.21-22.49,22.96-30.2,10.2-7.31,21.67-11.72,33.83-14.45,12.86-2.89,25.88-3.48,38.99-2.27,11.19,1.04,22.15,3.24,32.54,7.64,19.36,8.2,33.71,21.39,40.74,41.6,2.27,6.53,3.52,13.28,3.61,20.22,0,.44-.06.88-.11,1.63Z"/><path class="cls-1" d="m989.1,635.85h-43.31c-6.84-20.41-13.69-40.86-20.52-61.27h-99.76c-6.66,20.47-13.29,40.82-19.95,61.26h-42.77c.17-2.6,69.02-217.88,71.56-223.77h80.87c24.58,74.45,49.19,148.99,73.89,223.78Zm-75.82-97.16c-12.85-38.49-25.57-76.6-38.3-114.72-.18,0-.35,0-.53,0-12.39,38.15-24.77,76.3-37.25,114.73h76.07Z"/><path class="cls-1" d="m1010.99,411.92h2.77c28.22,0,56.44,0,84.66,0,13.69,0,26.93,2.25,39.42,8,14.38,6.63,25.5,16.72,32.58,31,3.65,7.38,5.68,15.23,6.39,23.39,1.16,13.22-.71,26.02-6.12,38.21-6.57,14.81-17.5,25.27-32.24,31.87-8.41,3.77-17.24,6.05-26.41,6.73-7.4.55-14.84.59-22.27.77-4.93.13-9.84.17-14.67,1.38-9.68,2.42-16.58,7.99-20.5,17.28-1.28,3.04-1.87,6.09-1.87,9.34,0,15.63-.04,31.27-.07,46.9,0,2.94,0,5.89,0,9.01h-41.66v-223.89Zm41.94,35.34v123.98c.34-.33.39-.68.41-1.02.65-8.21,1.96-16.3,4.44-24.17,1.97-6.24,4.46-12.25,8.4-17.56,5.7-7.68,13.14-11.9,22.92-11.64,4.29.11,8.6.16,12.89-.08,13.13-.72,22.93-6.94,29.22-18.4,4.54-8.28,5.16-17.16,2.96-26.25-1.45-6-4.05-11.38-8.59-15.77-6.1-5.89-13.46-8.89-21.79-9.02-16.56-.27-33.12-.18-49.69-.23-.34,0-.68.09-1.17.16Z"/><path class="cls-1" d="m479.26,476.39c-.09,65.59.09,157.98.51,159.49h41.26v-198.1l-41.77,38.61Z"/></svg>